<?xml version="1.0" encoding="UTF-8" standalone="no"?>
<!DOCTYPE svg PUBLIC "-//W3C//DTD SVG 1.1//EN" "http://www.w3.org/Graphics/SVG/1.1/DTD/svg11.dtd">
<svg width="100%" height="100%" viewBox="0 0 977 286" version="1.1" xmlns="http://www.w3.org/2000/svg" xmlns:xlink="http://www.w3.org/1999/xlink" xml:space="preserve" xmlns:serif="http://www.serif.com/" style="fill-rule:evenodd;clip-rule:evenodd;stroke-linejoin:round;stroke-miterlimit:2;">
    <g transform="matrix(1,0,0,1,-1734,-934)">
        <g transform="matrix(1,0,0,1,-0.666667,0)">
            <g transform="matrix(1,0,0,1,-442,442)">
                <g transform="matrix(0.321678,0,0,0.321678,1573.69,430.734)">
                    <rect x="2176" y="492" width="286" height="286" style="fill:rgb(55,70,98);"/>
                </g>
                <g transform="matrix(1,0,0,1,0.666667,0)">
                    <path d="M2261,492L2192.98,492C2183.61,492 2176,499.607 2176,508.977L2176,664.18C2176,673.463 2183.54,681 2192.82,681L2261,681L2261,492Z" style="fill:rgb(55,70,98);"/>
                </g>
                <g transform="matrix(-1,0,0,1,4638.67,97)">
                    <path d="M2261,492L2192.98,492C2183.61,492 2176,499.607 2176,508.977L2176,664.18C2176,673.463 2183.54,681 2192.82,681L2261,681L2261,492Z" style="fill:rgb(55,70,98);"/>
                </g>
                <g transform="matrix(-6.12323e-17,1,1,6.12323e-17,1781.67,-1684)">
                    <path d="M2261,492L2176,492L2176,664.18C2176,673.463 2183.54,681 2192.82,681L2244,681C2253.38,681 2261,673.383 2261,664L2261,492Z" style="fill:rgb(55,70,98);"/>
                </g>
                <g transform="matrix(6.12323e-17,1,-1,6.12323e-17,2857.67,-1483)">
                    <path d="M2261,492L2176,492L2176,664.18C2176,673.463 2183.54,681 2192.82,681L2244,681C2253.38,681 2261,673.383 2261,664L2261,492Z" style="fill:rgb(55,70,98);"/>
                </g>
            </g>
        </g>
        <g transform="matrix(1,0,0,1,-0.666667,0)">
            <g transform="matrix(1.16608,0,0,1.95105,-307.982,-721.596)">
                <g transform="matrix(82.3268,0,0,49.2043,2033,939.206)">
                    <path d="M0.316,0.007C0.265,0.007 0.219,-0.001 0.178,-0.018C0.137,-0.035 0.105,-0.059 0.081,-0.092C0.056,-0.125 0.043,-0.164 0.042,-0.21L0.224,-0.21C0.227,-0.184 0.236,-0.164 0.251,-0.151C0.266,-0.137 0.286,-0.13 0.311,-0.13C0.336,-0.13 0.356,-0.136 0.371,-0.148C0.386,-0.159 0.393,-0.175 0.393,-0.196C0.393,-0.213 0.387,-0.228 0.376,-0.239C0.364,-0.25 0.349,-0.26 0.333,-0.267C0.316,-0.274 0.291,-0.283 0.26,-0.292C0.215,-0.306 0.178,-0.32 0.149,-0.334C0.12,-0.348 0.096,-0.369 0.075,-0.396C0.054,-0.423 0.044,-0.459 0.044,-0.503C0.044,-0.568 0.068,-0.619 0.115,-0.657C0.162,-0.693 0.224,-0.712 0.3,-0.712C0.377,-0.712 0.44,-0.693 0.487,-0.657C0.534,-0.619 0.56,-0.568 0.563,-0.502L0.378,-0.502C0.377,-0.525 0.368,-0.543 0.353,-0.556C0.338,-0.569 0.318,-0.575 0.294,-0.575C0.273,-0.575 0.257,-0.57 0.244,-0.559C0.231,-0.548 0.225,-0.532 0.225,-0.511C0.225,-0.488 0.236,-0.471 0.257,-0.458C0.278,-0.445 0.312,-0.432 0.357,-0.417C0.402,-0.402 0.439,-0.387 0.468,-0.373C0.496,-0.359 0.52,-0.339 0.541,-0.312C0.562,-0.285 0.572,-0.251 0.572,-0.209C0.572,-0.169 0.562,-0.133 0.542,-0.1C0.521,-0.067 0.492,-0.041 0.453,-0.022C0.414,-0.003 0.369,0.007 0.316,0.007Z" style="fill:rgb(55,70,98);fill-rule:nonzero;"/>
                </g>
                <g transform="matrix(82.3268,0,0,49.2043,2079.51,939.206)">
                    <path d="M1.028,-0.702L0.845,-0L0.638,-0L0.526,-0.462L0.41,-0L0.203,-0L0.025,-0.702L0.208,-0.702L0.309,-0.191L0.434,-0.702L0.622,-0.702L0.742,-0.191L0.844,-0.702L1.028,-0.702Z" style="fill:rgb(55,70,98);fill-rule:nonzero;"/>
                </g>
                <g transform="matrix(82.3268,0,0,49.2043,2162.01,939.206)">
                    <path d="M0.499,-0.124L0.237,-0.124L0.195,-0L0.016,-0L0.27,-0.702L0.468,-0.702L0.722,-0L0.541,-0L0.499,-0.124ZM0.455,-0.256L0.368,-0.513L0.282,-0.256L0.455,-0.256Z" style="fill:rgb(55,70,98);fill-rule:nonzero;"/>
                </g>
                <g transform="matrix(82.3268,0,0,49.2043,2218.56,939.206)">
                    <path d="M0.528,-0.48C0.515,-0.503 0.497,-0.521 0.474,-0.534C0.45,-0.546 0.422,-0.552 0.39,-0.552C0.335,-0.552 0.29,-0.534 0.257,-0.498C0.224,-0.461 0.207,-0.413 0.207,-0.352C0.207,-0.287 0.225,-0.237 0.26,-0.201C0.295,-0.164 0.343,-0.146 0.404,-0.146C0.446,-0.146 0.482,-0.157 0.511,-0.178C0.54,-0.199 0.561,-0.23 0.574,-0.27L0.357,-0.27L0.357,-0.396L0.729,-0.396L0.729,-0.237C0.716,-0.194 0.695,-0.155 0.665,-0.118C0.634,-0.081 0.596,-0.052 0.549,-0.029C0.502,-0.006 0.45,0.005 0.391,0.005C0.322,0.005 0.26,-0.01 0.206,-0.041C0.151,-0.071 0.109,-0.113 0.079,-0.167C0.048,-0.221 0.033,-0.283 0.033,-0.352C0.033,-0.421 0.048,-0.483 0.079,-0.538C0.109,-0.592 0.151,-0.634 0.205,-0.665C0.259,-0.695 0.321,-0.71 0.39,-0.71C0.474,-0.71 0.545,-0.69 0.603,-0.649C0.66,-0.608 0.698,-0.552 0.717,-0.48L0.528,-0.48Z" style="fill:rgb(55,70,98);fill-rule:nonzero;"/>
                </g>
                <g transform="matrix(82.3268,0,0,49.2043,2290.52,939.206)">
                    <path d="M0.033,-0.352C0.033,-0.421 0.048,-0.483 0.078,-0.538C0.108,-0.592 0.15,-0.634 0.204,-0.665C0.257,-0.695 0.318,-0.71 0.386,-0.71C0.469,-0.71 0.541,-0.688 0.6,-0.644C0.659,-0.6 0.699,-0.54 0.719,-0.464L0.531,-0.464C0.517,-0.493 0.497,-0.516 0.472,-0.531C0.446,-0.546 0.417,-0.554 0.384,-0.554C0.331,-0.554 0.289,-0.536 0.256,-0.499C0.223,-0.462 0.207,-0.413 0.207,-0.352C0.207,-0.291 0.223,-0.242 0.256,-0.205C0.289,-0.168 0.331,-0.15 0.384,-0.15C0.417,-0.15 0.446,-0.158 0.472,-0.173C0.497,-0.188 0.517,-0.211 0.531,-0.24L0.719,-0.24C0.699,-0.164 0.659,-0.104 0.6,-0.061C0.541,-0.017 0.469,0.005 0.386,0.005C0.318,0.005 0.257,-0.01 0.204,-0.041C0.15,-0.071 0.108,-0.113 0.078,-0.167C0.048,-0.221 0.033,-0.283 0.033,-0.352Z" style="fill:rgb(55,70,98);fill-rule:nonzero;"/>
                </g>
                <g transform="matrix(82.3268,0,0,49.2043,2349.14,939.206)">
                    <path d="M0.316,0.007C0.265,0.007 0.219,-0.001 0.178,-0.018C0.137,-0.035 0.105,-0.059 0.081,-0.092C0.056,-0.125 0.043,-0.164 0.042,-0.21L0.224,-0.21C0.227,-0.184 0.236,-0.164 0.251,-0.151C0.266,-0.137 0.286,-0.13 0.311,-0.13C0.336,-0.13 0.356,-0.136 0.371,-0.148C0.386,-0.159 0.393,-0.175 0.393,-0.196C0.393,-0.213 0.387,-0.228 0.376,-0.239C0.364,-0.25 0.349,-0.26 0.333,-0.267C0.316,-0.274 0.291,-0.283 0.26,-0.292C0.215,-0.306 0.178,-0.32 0.149,-0.334C0.12,-0.348 0.096,-0.369 0.075,-0.396C0.054,-0.423 0.044,-0.459 0.044,-0.503C0.044,-0.568 0.068,-0.619 0.115,-0.657C0.162,-0.693 0.224,-0.712 0.3,-0.712C0.377,-0.712 0.44,-0.693 0.487,-0.657C0.534,-0.619 0.56,-0.568 0.563,-0.502L0.378,-0.502C0.377,-0.525 0.368,-0.543 0.353,-0.556C0.338,-0.569 0.318,-0.575 0.294,-0.575C0.273,-0.575 0.257,-0.57 0.244,-0.559C0.231,-0.548 0.225,-0.532 0.225,-0.511C0.225,-0.488 0.236,-0.471 0.257,-0.458C0.278,-0.445 0.312,-0.432 0.357,-0.417C0.402,-0.402 0.439,-0.387 0.468,-0.373C0.496,-0.359 0.52,-0.339 0.541,-0.312C0.562,-0.285 0.572,-0.251 0.572,-0.209C0.572,-0.169 0.562,-0.133 0.542,-0.1C0.521,-0.067 0.492,-0.041 0.453,-0.022C0.414,-0.003 0.369,0.007 0.316,0.007Z" style="fill:rgb(55,70,98);fill-rule:nonzero;"/>
                </g>
                <g transform="matrix(82.3268,0,0,49.2043,2395.65,939.206)">
                    <path d="M0.316,0.007C0.265,0.007 0.219,-0.001 0.178,-0.018C0.137,-0.035 0.105,-0.059 0.081,-0.092C0.056,-0.125 0.043,-0.164 0.042,-0.21L0.224,-0.21C0.227,-0.184 0.236,-0.164 0.251,-0.151C0.266,-0.137 0.286,-0.13 0.311,-0.13C0.336,-0.13 0.356,-0.136 0.371,-0.148C0.386,-0.159 0.393,-0.175 0.393,-0.196C0.393,-0.213 0.387,-0.228 0.376,-0.239C0.364,-0.25 0.349,-0.26 0.333,-0.267C0.316,-0.274 0.291,-0.283 0.26,-0.292C0.215,-0.306 0.178,-0.32 0.149,-0.334C0.12,-0.348 0.096,-0.369 0.075,-0.396C0.054,-0.423 0.044,-0.459 0.044,-0.503C0.044,-0.568 0.068,-0.619 0.115,-0.657C0.162,-0.693 0.224,-0.712 0.3,-0.712C0.377,-0.712 0.44,-0.693 0.487,-0.657C0.534,-0.619 0.56,-0.568 0.563,-0.502L0.378,-0.502C0.377,-0.525 0.368,-0.543 0.353,-0.556C0.338,-0.569 0.318,-0.575 0.294,-0.575C0.273,-0.575 0.257,-0.57 0.244,-0.559C0.231,-0.548 0.225,-0.532 0.225,-0.511C0.225,-0.488 0.236,-0.471 0.257,-0.458C0.278,-0.445 0.312,-0.432 0.357,-0.417C0.402,-0.402 0.439,-0.387 0.468,-0.373C0.496,-0.359 0.52,-0.339 0.541,-0.312C0.562,-0.285 0.572,-0.251 0.572,-0.209C0.572,-0.169 0.562,-0.133 0.542,-0.1C0.521,-0.067 0.492,-0.041 0.453,-0.022C0.414,-0.003 0.369,0.007 0.316,0.007Z" style="fill:rgb(55,70,98);fill-rule:nonzero;"/>
                </g>
            </g>
        </g>
        <g transform="matrix(1,0,0,1,-0.666667,0)">
            <g transform="matrix(1.16608,0,0,1.95105,211.018,-720.756)">
                <g transform="matrix(41.1634,0,0,24.6022,2033,930.103)">
                    <path d="M0.325,-0.702C0.399,-0.702 0.464,-0.687 0.519,-0.658C0.574,-0.629 0.617,-0.588 0.648,-0.535C0.678,-0.482 0.693,-0.42 0.693,-0.351C0.693,-0.282 0.678,-0.221 0.648,-0.168C0.617,-0.115 0.574,-0.073 0.519,-0.044C0.463,-0.015 0.398,-0 0.325,-0L0.062,-0L0.062,-0.702L0.325,-0.702ZM0.314,-0.148C0.379,-0.148 0.429,-0.166 0.465,-0.201C0.501,-0.236 0.519,-0.286 0.519,-0.351C0.519,-0.416 0.501,-0.466 0.465,-0.502C0.429,-0.538 0.379,-0.556 0.314,-0.556L0.233,-0.556L0.233,-0.148L0.314,-0.148Z" style="fill:rgb(55,70,98);fill-rule:nonzero;"/>
                </g>
                <g transform="matrix(41.1634,0,0,24.6022,2060.87,930.103)">
                    <path d="M0.394,0.007C0.328,0.007 0.268,-0.008 0.213,-0.039C0.158,-0.07 0.114,-0.113 0.082,-0.168C0.049,-0.223 0.033,-0.284 0.033,-0.353C0.033,-0.422 0.049,-0.483 0.082,-0.538C0.114,-0.593 0.158,-0.635 0.213,-0.666C0.268,-0.697 0.328,-0.712 0.394,-0.712C0.46,-0.712 0.521,-0.697 0.576,-0.666C0.631,-0.635 0.674,-0.593 0.706,-0.538C0.737,-0.483 0.753,-0.422 0.753,-0.353C0.753,-0.284 0.737,-0.223 0.705,-0.168C0.673,-0.113 0.63,-0.07 0.575,-0.039C0.52,-0.008 0.46,0.007 0.394,0.007ZM0.394,-0.149C0.45,-0.149 0.495,-0.168 0.529,-0.205C0.562,-0.242 0.579,-0.292 0.579,-0.353C0.579,-0.415 0.562,-0.464 0.529,-0.502C0.495,-0.539 0.45,-0.557 0.394,-0.557C0.337,-0.557 0.292,-0.539 0.259,-0.502C0.225,-0.465 0.208,-0.416 0.208,-0.353C0.208,-0.291 0.225,-0.242 0.259,-0.205C0.292,-0.167 0.337,-0.149 0.394,-0.149Z" style="fill:rgb(55,70,98);fill-rule:nonzero;"/>
                </g>
                <g transform="matrix(41.1634,0,0,24.6022,2091.16,930.103)">
                    <path d="M0.033,-0.352C0.033,-0.421 0.048,-0.483 0.078,-0.538C0.108,-0.592 0.15,-0.634 0.204,-0.665C0.257,-0.695 0.318,-0.71 0.386,-0.71C0.469,-0.71 0.541,-0.688 0.6,-0.644C0.659,-0.6 0.699,-0.54 0.719,-0.464L0.531,-0.464C0.517,-0.493 0.497,-0.516 0.472,-0.531C0.446,-0.546 0.417,-0.554 0.384,-0.554C0.331,-0.554 0.289,-0.536 0.256,-0.499C0.223,-0.462 0.207,-0.413 0.207,-0.352C0.207,-0.291 0.223,-0.242 0.256,-0.205C0.289,-0.168 0.331,-0.15 0.384,-0.15C0.417,-0.15 0.446,-0.158 0.472,-0.173C0.497,-0.188 0.517,-0.211 0.531,-0.24L0.719,-0.24C0.699,-0.164 0.659,-0.104 0.6,-0.061C0.541,-0.017 0.469,0.005 0.386,0.005C0.318,0.005 0.257,-0.01 0.204,-0.041C0.15,-0.071 0.108,-0.113 0.078,-0.167C0.048,-0.221 0.033,-0.283 0.033,-0.352Z" style="fill:rgb(55,70,98);fill-rule:nonzero;"/>
                </g>
                <g transform="matrix(41.1634,0,0,24.6022,2120.47,930.103)">
                    <path d="M0.316,0.007C0.265,0.007 0.219,-0.001 0.178,-0.018C0.137,-0.035 0.105,-0.059 0.081,-0.092C0.056,-0.125 0.043,-0.164 0.042,-0.21L0.224,-0.21C0.227,-0.184 0.236,-0.164 0.251,-0.151C0.266,-0.137 0.286,-0.13 0.311,-0.13C0.336,-0.13 0.356,-0.136 0.371,-0.148C0.386,-0.159 0.393,-0.175 0.393,-0.196C0.393,-0.213 0.387,-0.228 0.376,-0.239C0.364,-0.25 0.349,-0.26 0.333,-0.267C0.316,-0.274 0.291,-0.283 0.26,-0.292C0.215,-0.306 0.178,-0.32 0.149,-0.334C0.12,-0.348 0.096,-0.369 0.075,-0.396C0.054,-0.423 0.044,-0.459 0.044,-0.503C0.044,-0.568 0.068,-0.619 0.115,-0.657C0.162,-0.693 0.224,-0.712 0.3,-0.712C0.377,-0.712 0.44,-0.693 0.487,-0.657C0.534,-0.619 0.56,-0.568 0.563,-0.502L0.378,-0.502C0.377,-0.525 0.368,-0.543 0.353,-0.556C0.338,-0.569 0.318,-0.575 0.294,-0.575C0.273,-0.575 0.257,-0.57 0.244,-0.559C0.231,-0.548 0.225,-0.532 0.225,-0.511C0.225,-0.488 0.236,-0.471 0.257,-0.458C0.278,-0.445 0.312,-0.432 0.357,-0.417C0.402,-0.402 0.439,-0.387 0.468,-0.373C0.496,-0.359 0.52,-0.339 0.541,-0.312C0.562,-0.285 0.572,-0.251 0.572,-0.209C0.572,-0.169 0.562,-0.133 0.542,-0.1C0.521,-0.067 0.492,-0.041 0.453,-0.022C0.414,-0.003 0.369,0.007 0.316,0.007Z" style="fill:rgb(55,70,98);fill-rule:nonzero;"/>
                </g>
            </g>
        </g>
    </g>
</svg>
